<?xml version="1.0" standalone="no"?><!DOCTYPE svg PUBLIC "-//W3C//DTD SVG 1.1//EN" "http://www.w3.org/Graphics/SVG/1.1/DTD/svg11.dtd"><svg t="1590722699078" class="icon" viewBox="0 0 1024 1024" version="1.1" xmlns="http://www.w3.org/2000/svg" p-id="2694" xmlns:xlink="http://www.w3.org/1999/xlink" width="200" height="200"><defs><style type="text/css"></style></defs><path d="M992.8 558.1c-8 0-16-3-22.1-9.1L552 130.3c-10.7-10.7-24.9-16.6-40-16.6-15.1 0-29.3 5.9-40 16.6L53.3 549c-12.2 12.2-32 12.2-44.2 0-12.1-12.2-12.1-32 0-44.2L427.8 86.2c22.5-22.5 52.4-34.9 84.2-34.9s61.7 12.4 84.2 34.9l418.7 418.7c12.2 12.2 12.2 32 0 44.2-6.1 6-14.1 9-22.1 9z" fill="#666666" p-id="2695"></path><path d="M867 461.4H157c-33 0-60 27-60 60v391.3c0 33 27 60 60 60h191V695h296c17.7 0 32 14.3 32 32s-14.3 32-32 32H412v213.7h455c33 0 60-27 60-60V521.4c0-33-27-60-60-60z" fill="#666666" p-id="2696"></path><path d="M918.7 480.9L101.4 484 511.6 73.8z" fill="#666666" p-id="2697"></path></svg>